PathFileType	4	(X/Y/Z)	C:/Users/beibeiliu/ov580/test_trc/capture2\sequence.8_training_dense_left.trc
DataRate	CameraRate	NumFrames	NumMarkers	Units	OrigDataRate	OrigDataStartFrame	OrigNumFrames
120	120	11	19	mm	120	151	400
Frame#	Time	ThumbCMC			ThumbMCP			ThumbIP			ThumbTip			IndexMCP			IndexPIP			IndexTip			MiddleMCP			MiddlePIP			MiddleTip			RingMCP			RingPIP			RingTip			PinkyMCP			PinkyPIP			PinkyTip			BackHand1			BackHand2			BackHand3	
		X0	Y0	Z0	X1	Y1	Z1	X2	Y2	Z2	X3	Y3	Z3	X4	Y4	Z4	X5	Y5	Z5	X6	Y6	Z6	X7	Y7	Z7	X8	Y8	Z8	X9	Y9	Z9	X10	Y10	Z10	X11	Y11	Z11	X12	Y12	Z12	X13	Y13	Z13	X14	Y14	Z14	X15	Y15	Z15	X16	Y16	Z16	X17	Y17	Z17	X18	Y18	Z18	
150	1.25	-154.213	-100.293	19.8974	-142.169	-124.737	17.5814	-124.923	-139.364	18.599	-109.218	-153.422	20.7569	-123.532	-122.425	-40.4103	-108.668	-137.765	-55.9326	-98.8623	-144.123	-77.5648	-133.039	-111.133	-62.6367	-123.494	-123.098	-84.4273	-111.463	-132.339	-101.986	-147.711	-105.353	-71.2909	-145.386	-114.094	-92.8078	-138.286	-123.965	-113.883	-180.685	-90.9443	-76.0369	-184.98	-101.928	-93.1447	-185.458	-100.416	-117.119	-162.178	-70.3967	-31.0911	-171.828	-54.7371	-10.1725	-145.514	-78.4392	-1.58987	
151	1.25833	-152.566	-98.2283	18.6222	-145.357	-118.203	9.99365	-122.16	-135.883	10.0872	-108.551	-148.663	8.50553	-126.482	-116.402	-44.6888	-114.45	-130.028	-62.1669	-102.679	-138.256	-84.5623	-138.355	-104.805	-64.9223	-127.442	-116.129	-86.8362	-114.266	-127.123	-109.492	-153.626	-98.0438	-77.589	-149.863	-108.299	-97.2462	-144.472	-115.885	-117.242	-182.884	-88.7629	-78.9596	-190.519	-95.0725	-95.4107	-192.622	-94.1331	-115.563	-164.665	-65.1042	-39.3129	-174.827	-49.1516	-14.69	-149.619	-74.6279	-10.6057	
152	1.26667	-154.927	-92.7656	13.6186	-147.758	-112.614	9.78159	-125.696	-128.685	6.49621	-110.288	-141.443	4.37086	-127.41	-112.41	-51.081	-115.391	-125.05	-67.9916	-106.155	-129.6	-88.3238	-140.771	-98.725	-71.3465	-130.781	-110.085	-90.6874	-121.51	-117.963	-114.708	-159.04	-90.8073	-78.4388	-156.85	-99.3258	-100.159	-150.211	-108.943	-126.77	-191.235	-79.9032	-81.6762	-193.808	-90.8429	-98.7367	-197.739	-89.6583	-120.356	-170.027	-60.0178	-38.9879	-174.966	-45.2197	-14.8762	-152.864	-68.1447	-11.7283	
153	1.275	-157.559	-85.1966	8.41839	-144.463	-106.563	5.59349	-126.657	-121.374	-3.79829	-111.496	-133.692	-3.18344	-134.608	-101.517	-57.4663	-117.834	-115.834	-76.878	-109.573	-120.43	-99.342	-141.996	-92.5038	-77.7453	-137.465	-100.14	-98.2797	-125.342	-110.31	-120.883	-167.885	-80.8489	-83.7826	-162.261	-91.3794	-107.806	-156.976	-100.059	-127.27	-193.482	-75.9671	-83.4826	-202.363	-82.8659	-103.665	-204.862	-81.32	-122.956	-174.482	-54.7262	-46.8002	-181.285	-37.3253	-18.1136	-155.426	-60.3964	-15.2939	
154	1.28333	-158.281	-78.6641	4.11581	-142.579	-100.951	-0.00582681	-122.51	-116.634	-9.32784	-109.988	-127.16	-14.0609	-132.386	-96.1656	-64.434	-124.804	-105.154	-83.916	-114.983	-110.274	-103.076	-149.997	-81.886	-82.4277	-140.614	-92.1187	-102.572	-130.195	-100.553	-129.233	-169.042	-76.0453	-84.9958	-168.896	-83.6614	-112.827	-163.319	-90.6446	-134.213	-200.167	-66.928	-85.0628	-203.576	-76.8182	-105.421	-210.65	-74.6425	-123.28	-176.452	-48.0355	-46.0045	-185.195	-31.7662	-19.5428	-156.936	-57.5287	-20.2624	
155	1.29167	-159.074	-71.0531	4.06311	-146.752	-93.1243	-8.30444	-125.54	-108.096	-13.3879	-106.322	-120.04	-16.648	-135.63	-87.5978	-64.4633	-123.326	-97.7735	-85.8805	-114.662	-101.977	-107.93	-151.524	-73.6037	-84.5661	-142.893	-85.0235	-109.326	-136.977	-89.4392	-132.414	-171.531	-68.3664	-89.1688	-173.025	-73.6511	-112.484	-166.673	-82.227	-136.594	-201.583	-61.9085	-90.1687	-210.004	-68.2556	-105.788	-213.558	-65.604	-125.544	-177.665	-40.2449	-47.8931	-184.438	-24.3526	-20.2112	-160.221	-45.5574	-22.0185	
156	1.3	-156.926	-66.0685	-1.30349	-146.331	-85.034	-10.196	-123.02	-100.773	-16.6881	-107.767	-112.178	-16.6728	-138.612	-78.1541	-73.9326	-128.371	-87.5203	-91.374	-118.223	-92.8253	-112.012	-153.947	-64.6813	-91.3156	-147.676	-73.3962	-111.456	-140.076	-78.9143	-138.247	-176.345	-58.3522	-96.0695	-171.759	-68.6922	-115.784	-169.69	-73.7548	-140.716	-201.603	-53.7275	-87.6701	-209.16	-61.3655	-105.435	-217.635	-56.4742	-127.074	-180.842	-33.9336	-51.2535	-185.411	-20.7122	-23.5342	-160.941	-41.2295	-28.035	
157	1.30833	-155.615	-58.7291	-0.469808	-147.02	-78.2695	-9.68687	-123.155	-93.7913	-19.6948	-107.733	-104.829	-25.5457	-136.243	-71.6673	-73.0183	-128.579	-80.861	-92.4047	-116.033	-85.5687	-115.219	-156.487	-55.7199	-90.7801	-147.104	-66.0976	-114.235	-140.884	-70.5654	-143.442	-178.956	-50.0194	-97.3904	-174.668	-59.7075	-118.032	-171.994	-64.9596	-144.824	-204.652	-44.6474	-92.8861	-210.25	-52.5258	-108.229	-215.328	-53.0996	-130.756	-182.998	-25.0381	-55.2448	-188.133	-12.1031	-26.6741	-158.643	-35.1863	-25.7478	
158	1.31667	-156.925	-52.3651	-7.36871	-142.226	-72.4594	-15.2589	-126.124	-84.8397	-24.5717	-108.302	-96.1386	-28.3846	-137.107	-63.2521	-79.5222	-127.791	-73.1991	-97.8643	-118.144	-75.6459	-118.558	-152.615	-49.6859	-97.1519	-148.794	-56.1529	-114.956	-142.992	-60.5494	-142.808	-176.982	-42.1273	-103.126	-174.025	-50.1848	-121.128	-173.76	-53.4675	-144.636	-206.051	-35.7988	-96.4204	-214.146	-42.0479	-109.541	-219.603	-41.9911	-134.467	-183.094	-17.7705	-53.1226	-188.628	-4.05656	-28.1988	-158.247	-27.3817	-30.0346	
159	1.325	-156.897	-45.0516	-7.50848	-140.677	-64.8037	-19.889	-121.307	-77.0932	-31.5251	-104.916	-87.7803	-34.8108	-136.876	-55.7014	-78.6164	-125.703	-64.9424	-102.979	-120.636	-66.1051	-121.937	-156.329	-38.2483	-97.2854	-150.509	-45.7127	-122.252	-141.712	-51.5021	-147.959	-179.665	-32.1977	-102.755	-174.052	-40.5424	-124.211	-172.983	-45.6789	-149.478	-204.672	-28.3344	-97.7209	-211.985	-36.1972	-113.79	-216.512	-32.3139	-134.113	-183.69	-8.01835	-56.0902	-188.664	2.94524	-31.5694	-161.157	-18.6503	-34.7079	
160	1.33333	-158.354	-35.0197	-12.0553	-142.504	-53.8591	-24.2029	-120.882	-67.4398	-35.2701	-101.477	-77.8917	-41.3403	-138.605	-42.289	-87.9932	-128.453	-51.8299	-105.432	-117.658	-53.9767	-128.819	-154.961	-29.274	-103.453	-150.403	-36.0565	-126.19	-143.378	-39.1941	-155.482	-179.639	-22.2408	-103.728	-179.305	-27.5872	-132.077	-176.777	-32.6488	-152.478	-208.697	-18.3381	-98.7449	-217.095	-24.762	-120.751	-219.283	-22.7608	-142.291	-181.313	-1.92931	-61.7094	-188.119	8.14444	-31.9333	-159.463	-8.97196	-35.0289	
